<svg viewBox="0 0 187 88" fill="none" xmlns="http://www.w3.org/2000/svg">
<path fill-rule="evenodd" clip-rule="evenodd" d="M41.3111 85.053H37.5008C37.5008 85.37 37.5498 85.6493 37.6429 85.883C37.7427 86.1183 37.8733 86.316 38.0367 86.463C38.1952 86.6101 38.3864 86.7261 38.6118 86.7963C38.8292 86.8731 39.0759 86.9107 39.339 86.9058C39.6886 86.9107 40.0432 86.8405 40.3977 86.6983C40.7588 86.5561 41.0104 86.4189 41.164 86.2833H41.2082V87.2342C40.9173 87.3535 40.6166 87.4581 40.3111 87.5447C40.0056 87.628 39.682 87.6656 39.3488 87.6656C38.491 87.6656 37.8178 87.4369 37.3374 86.9712C36.8571 86.5071 36.6152 85.8454 36.6152 84.9925C36.6152 84.1462 36.8456 83.473 37.3097 82.9763C37.7688 82.4779 38.3766 82.2329 39.1298 82.2329C39.8291 82.2329 40.365 82.4354 40.7425 82.8456C41.1199 83.2492 41.3111 83.8292 41.3111 84.5775V85.053ZM40.4647 84.3864C40.4582 83.9272 40.3438 83.5776 40.12 83.326C39.8896 83.0743 39.5464 82.9485 39.0808 82.9485C38.6168 82.9485 38.2458 83.0858 37.9714 83.3635C37.6936 83.6364 37.54 83.9762 37.5008 84.3864H40.4647Z" fill="white" stroke="white" stroke-width="0.3"/>
<path fill-rule="evenodd" clip-rule="evenodd" d="M53.7465 87.5447H52.8774V84.6053C52.8774 84.3634 52.8659 84.1397 52.8398 83.9321C52.8054 83.7247 52.7564 83.5612 52.6862 83.4452C52.6045 83.3145 52.495 83.2214 52.3529 83.156C52.2042 83.0906 52.0196 83.0629 51.7842 83.0629C51.549 83.0629 51.2974 83.1185 51.0409 83.2377C50.7778 83.3537 50.5327 83.5056 50.2925 83.687V87.5447H49.4233V82.375H50.2925V82.9485C50.5654 82.7246 50.8497 82.5499 51.1389 82.4241C51.4281 82.2982 51.7239 82.2329 52.0294 82.2329C52.5882 82.2329 53.0146 82.4011 53.3087 82.7361C53.6044 83.0743 53.7465 83.5547 53.7465 84.1886V87.5447Z" fill="white" stroke="white" stroke-width="0.3"/>
<path fill-rule="evenodd" clip-rule="evenodd" d="M64.903 87.5022C64.7379 87.5447 64.5631 87.579 64.3671 87.6051C64.1759 87.6329 64.006 87.6493 63.8524 87.6493C63.323 87.6493 62.9243 87.5071 62.6498 87.2228C62.377 86.9386 62.2348 86.4859 62.2348 85.8569V83.1071H61.6499V82.3751H62.2348V80.8882H63.1089V82.3751H64.903V83.1071H63.1089V85.4631C63.1089 85.736 63.1155 85.95 63.1253 86.102C63.1367 86.2556 63.1809 86.3977 63.2577 86.5284C63.323 86.6542 63.4161 86.7425 63.5354 86.8029C63.6563 86.8568 63.8361 86.8846 64.0828 86.8846C64.2249 86.8846 64.372 86.8617 64.5255 86.8241C64.6775 86.78 64.787 86.7473 64.8588 86.7195H64.903V87.5022Z" fill="white" stroke="white" stroke-width="0.3"/>
<path fill-rule="evenodd" clip-rule="evenodd" d="M77.0752 85.053H73.2649C73.2649 85.37 73.3139 85.6493 73.412 85.883C73.5051 86.1183 73.6374 86.316 73.8058 86.463C73.9642 86.6101 74.157 86.7261 74.3743 86.7963C74.5981 86.8731 74.84 86.9107 75.1063 86.9058C75.4559 86.9107 75.8122 86.8405 76.1684 86.6983C76.5229 86.5561 76.7794 86.4189 76.9264 86.2833H76.9755V87.2342C76.6814 87.3535 76.3808 87.4581 76.0752 87.5447C75.7729 87.628 75.4511 87.6656 75.1129 87.6656C74.2551 87.6656 73.5868 87.4369 73.1064 86.9712C72.626 86.5071 72.3793 85.8454 72.3859 84.9925C72.3793 84.1462 72.6146 83.473 73.0738 82.9763C73.5377 82.4779 74.1456 82.2329 74.8939 82.2329C75.5932 82.2329 76.1291 82.4354 76.5114 82.8456C76.8889 83.2492 77.0752 83.8292 77.0752 84.5775V85.053ZM76.2272 84.3864C76.2272 83.9272 76.1128 83.5776 75.8824 83.326C75.6602 83.0743 75.3138 82.9485 74.8498 82.9485C74.3857 82.9485 74.0132 83.0858 73.7355 83.3635C73.4626 83.6364 73.3025 83.9762 73.2649 84.3864H76.2272Z" fill="white" stroke="white" stroke-width="0.3"/>
<path fill-rule="evenodd" clip-rule="evenodd" d="M88.4177 83.3259H88.3735C88.2412 83.2932 88.1154 83.2704 87.9961 83.2606C87.8704 83.2442 87.7281 83.2376 87.5582 83.2376C87.2903 83.2376 87.0338 83.2981 86.7822 83.4125C86.5305 83.5334 86.2904 83.687 86.06 83.8782V87.5446H85.1924V82.375H86.06V83.1396C86.4064 82.8603 86.7102 82.6642 86.9733 82.5498C87.2413 82.4354 87.5092 82.375 87.7821 82.375C87.9357 82.375 88.0451 82.3798 88.1105 82.3865C88.1824 82.3963 88.2804 82.4076 88.4177 82.4289V83.3259Z" fill="white" stroke="white" stroke-width="0.3"/>
<path fill-rule="evenodd" clip-rule="evenodd" d="M98.7144 87.5022C98.5495 87.5447 98.3746 87.579 98.1786 87.6051C97.9874 87.6329 97.8175 87.6493 97.6655 87.6493C97.1345 87.6493 96.7358 87.5071 96.4629 87.2228C96.1885 86.9386 96.0463 86.4859 96.0463 85.8569V83.1071H95.4614V82.3751H96.0463V80.8882H96.9221V82.3751H98.7144V83.1071H96.9221V85.4631C96.9221 85.736 96.927 85.95 96.9384 86.102C96.9482 86.2556 96.9924 86.3977 97.0691 86.5284C97.1345 86.6542 97.2276 86.7425 97.3485 86.8029C97.4678 86.8568 97.6476 86.8846 97.8943 86.8846C98.0364 86.8846 98.1835 86.8617 98.3371 86.8241C98.4907 86.78 98.5985 86.7473 98.6704 86.7195H98.7144V87.5022Z" fill="white" stroke="white" stroke-width="0.3"/>
<path fill-rule="evenodd" clip-rule="evenodd" d="M110.582 87.5447H109.711V86.999C109.636 87.048 109.531 87.1248 109.4 87.2179C109.27 87.3111 109.144 87.3862 109.018 87.4418C108.876 87.512 108.706 87.5725 108.52 87.6215C108.329 87.6656 108.11 87.6934 107.86 87.6934C107.389 87.6934 106.995 87.5349 106.673 87.2278C106.345 86.9173 106.187 86.5235 106.187 86.0481C106.187 85.6543 106.268 85.3373 106.438 85.0971C106.606 84.8553 106.848 84.6658 107.159 84.5236C107.471 84.3864 107.848 84.2932 108.291 84.2443C108.734 84.1952 109.209 84.1576 109.711 84.1298V83.9975C109.711 83.8015 109.68 83.6364 109.608 83.5057C109.543 83.375 109.438 83.277 109.312 83.2002C109.188 83.1283 109.039 83.0793 108.865 83.058C108.695 83.0303 108.515 83.0205 108.324 83.0205C108.095 83.0205 107.842 83.0466 107.559 83.1071C107.28 83.1675 106.99 83.2541 106.69 83.3701H106.646V82.4894C106.816 82.4404 107.061 82.3914 107.378 82.3375C107.7 82.277 108.018 82.2493 108.329 82.2493C108.695 82.2493 109.011 82.282 109.28 82.3424C109.547 82.4012 109.783 82.5058 109.979 82.648C110.176 82.7901 110.324 82.9763 110.428 83.2002C110.526 83.424 110.582 83.7035 110.582 84.0367V87.5447ZM109.711 86.2719V84.8341C109.449 84.8505 109.139 84.8733 108.778 84.906C108.417 84.9338 108.133 84.9828 107.918 85.0367C107.673 85.1069 107.471 85.2164 107.312 85.37C107.159 85.517 107.082 85.7246 107.082 85.9876C107.082 86.2834 107.177 86.5072 107.35 86.6542C107.531 86.8078 107.804 86.8781 108.17 86.8781C108.476 86.8781 108.755 86.8241 109.011 86.7032C109.263 86.584 109.498 86.4418 109.711 86.2719Z" fill="white" stroke="white" stroke-width="0.3"/>
<path fill-rule="evenodd" clip-rule="evenodd" d="M119.983 81.5108H119.004V80.6089H119.983V81.5108ZM119.928 87.5447H119.058V82.648H119.928V87.5447Z" fill="white" stroke="white" stroke-width="0.3"/>
<path fill-rule="evenodd" clip-rule="evenodd" d="M132.767 87.5447H131.897V84.6053C131.897 84.3634 131.888 84.1397 131.86 83.9321C131.827 83.7247 131.778 83.5612 131.706 83.4452C131.625 83.3145 131.515 83.2214 131.373 83.156C131.226 83.0906 131.04 83.0629 130.804 83.0629C130.569 83.0629 130.319 83.1185 130.061 83.2377C129.799 83.3537 129.553 83.5056 129.313 83.687V87.5447H128.443V82.375H129.313V82.9485C129.587 82.7246 129.87 82.5499 130.159 82.4241C130.45 82.2982 130.745 82.2329 131.051 82.2329C131.608 82.2329 132.035 82.4011 132.33 82.7361C132.624 83.0743 132.767 83.5547 132.767 84.1886V87.5447Z" fill="white" stroke="white" stroke-width="0.3"/>
<path fill-rule="evenodd" clip-rule="evenodd" d="M148.788 87.5447H147.913V84.6053C147.913 84.3798 147.908 84.1674 147.886 83.9599C147.864 83.7524 147.821 83.5874 147.761 83.4616C147.689 83.3309 147.586 83.2328 147.453 83.1626C147.318 83.0956 147.127 83.0629 146.88 83.0629C146.635 83.0629 146.388 83.1233 146.148 83.2442C145.901 83.3635 145.661 83.522 145.414 83.7083C145.426 83.7802 145.432 83.8618 145.437 83.9534C145.442 84.053 145.449 84.1462 145.449 84.2393V87.5447H144.579V84.6053C144.579 84.3749 144.568 84.1576 144.547 83.9534C144.524 83.7475 144.486 83.5824 144.421 83.4566C144.349 83.3259 144.246 83.2263 144.114 83.1626C143.983 83.0956 143.792 83.0629 143.54 83.0629C143.3 83.0629 143.065 83.1185 142.825 83.2377C142.584 83.3537 142.349 83.5056 142.109 83.687V87.5447H141.24V82.375H142.109V82.9485C142.382 82.7246 142.65 82.5499 142.923 82.4241C143.191 82.2982 143.481 82.2329 143.787 82.2329C144.137 82.2329 144.437 82.3031 144.682 82.4567C144.929 82.6038 145.109 82.8064 145.23 83.0695C145.584 82.7737 145.901 82.5613 146.192 82.4289C146.481 82.2982 146.793 82.2329 147.127 82.2329C147.694 82.2329 148.11 82.4011 148.383 82.7459C148.651 83.0906 148.788 83.5711 148.788 84.1886V87.5447Z" fill="white" stroke="white" stroke-width="0.3"/>
<path fill-rule="evenodd" clip-rule="evenodd" d="M161.584 85.053H157.773C157.773 85.37 157.824 85.6493 157.915 85.883C158.015 86.1183 158.146 86.316 158.309 86.463C158.474 86.6101 158.665 86.7261 158.884 86.7963C159.103 86.8731 159.348 86.9107 159.611 86.9058C159.966 86.9107 160.32 86.8405 160.677 86.6983C161.031 86.5561 161.283 86.4189 161.436 86.2833H161.485V87.2342C161.19 87.3535 160.889 87.4581 160.584 87.5447C160.278 87.628 159.961 87.6656 159.621 87.6656C158.763 87.6656 158.097 87.4369 157.61 86.9712C157.128 86.5071 156.888 85.8454 156.888 84.9925C156.888 84.1462 157.118 83.473 157.582 82.9763C158.041 82.4779 158.649 82.2329 159.402 82.2329C160.102 82.2329 160.637 82.4354 161.015 82.8456C161.397 83.2492 161.584 83.8292 161.584 84.5775V85.053ZM160.737 84.3864C160.737 83.9272 160.621 83.5776 160.392 83.326C160.169 83.0743 159.817 82.9485 159.358 82.9485C158.894 82.9485 158.523 83.0858 158.244 83.3635C157.971 83.6364 157.813 83.9762 157.773 84.3864H160.737Z" fill="white" stroke="white" stroke-width="0.3"/>
<path fill-rule="evenodd" clip-rule="evenodd" d="M174.024 87.5447H173.155V84.6053C173.155 84.3634 173.138 84.1397 173.111 83.9321C173.084 83.7247 173.035 83.5612 172.959 83.4452C172.882 83.3145 172.772 83.2214 172.625 83.156C172.477 83.0906 172.292 83.0629 172.062 83.0629C171.822 83.0629 171.575 83.1185 171.313 83.2377C171.057 83.3537 170.805 83.5056 170.57 83.687V87.5447H169.701V82.375H170.57V82.9485C170.843 82.7246 171.122 82.5499 171.411 82.4241C171.701 82.2982 172.001 82.2329 172.308 82.2329C172.866 82.2329 173.292 82.4011 173.581 82.7361C173.877 83.0743 174.024 83.5547 174.024 84.1886V87.5447Z" fill="white" stroke="white" stroke-width="0.3"/>
<path fill-rule="evenodd" clip-rule="evenodd" d="M185.18 87.5022C185.017 87.5447 184.836 87.579 184.644 87.6051C184.448 87.6329 184.278 87.6493 184.125 87.6493C183.6 87.6493 183.197 87.5071 182.922 87.2228C182.649 86.9386 182.512 86.4859 182.512 85.8569V83.1071H181.922V82.3751H182.512V80.8882H183.383V82.3751H185.18V83.1071H183.383V85.4631C183.383 85.736 183.388 85.95 183.398 86.102C183.416 86.2556 183.453 86.3977 183.53 86.5284C183.595 86.6542 183.694 86.7425 183.808 86.8029C183.929 86.8568 184.11 86.8846 184.355 86.8846C184.497 86.8846 184.644 86.8617 184.798 86.8241C184.95 86.78 185.066 86.7473 185.131 86.7195H185.18V87.5022Z" fill="white" stroke="white" stroke-width="0.3"/>
<path d="M118.567 31.8371L122.661 34.4268C123.3 33.9293 123.988 33.3417 124.721 32.7164C124.929 32.5387 125.14 32.3579 125.356 32.1753C126.263 31.3749 127.622 30.1263 129.398 28.494L129.597 28.3111L128.138 25.1953C128.097 25.2153 128.015 25.2357 127.913 25.2611C127.823 25.2834 127.718 25.3095 127.612 25.3424C124.761 26.0531 123.071 26.6936 122.508 27.3325L118.567 31.8371Z" fill="white"/>
<path d="M118.229 78.2151C118.382 78.3997 118.676 78.4765 119.054 78.5157C120.442 78.5157 121.978 76.2315 123.673 71.6893C123.833 71.2589 123.988 70.8429 124.137 70.4417C124.717 68.8816 125.213 67.5475 125.656 66.474L130.532 61.8174L129.22 60.2815L128.432 60.7292L127.46 59.7178C128.061 56.6412 128.509 53.6021 128.772 50.6775C129.073 47.7087 129.22 44.8625 129.22 42.1175C129.22 40.8447 129.187 40.0572 129.149 39.7501C129.11 39.451 129.04 39.3024 128.924 39.3024C128.882 39.3024 128.81 39.3024 128.772 39.3416C128.7 39.3416 128.656 39.3792 128.625 39.3792L125.771 40.3578C125.547 40.4281 125.4 40.6535 125.356 40.9542C125.356 41.0616 125.345 41.1552 125.336 41.2371C125.329 41.3009 125.323 41.3576 125.323 41.4085L121.344 43.3201C121.191 43.392 121.044 43.4688 121.009 43.5439C120.895 43.6158 120.857 43.691 120.818 43.8396C120.256 45.4572 119.764 47.2186 119.392 49.1368C119.014 51.0876 118.83 52.5859 118.83 53.6398C118.83 53.7397 118.861 53.8125 118.892 53.8829C118.894 53.8895 118.897 53.8962 118.9 53.9028C118.921 53.9117 118.939 53.9215 118.957 53.931C119.003 53.9563 119.046 53.9796 119.13 53.9796H120.934C120.895 55.7001 120.818 57.5039 120.704 59.4172C120.594 61.3305 120.403 63.3205 120.14 65.3858C119.24 66.6227 118.604 67.6324 118.229 68.3873C117.889 69.1356 117.704 69.8463 117.704 70.4868V70.5963L117.928 77.39C117.966 77.7723 118.042 78.068 118.229 78.2151Z" fill="white"/>
<path d="M178.611 65.5672C179.168 66.8841 179.993 67.5229 181.048 67.5229C181.573 67.5229 182.36 67.3318 183.409 66.9936C184.498 66.6227 185.623 66.1358 186.788 65.4952L186.898 64.7094C186.64 64.6326 186.448 64.479 186.372 64.3695C186.262 64.2176 186.225 63.9594 186.225 63.5819C186.225 62.3092 186.301 60.4661 186.488 58.0284C186.711 55.5857 186.788 53.826 186.788 52.7002C186.788 51.3115 186.488 50.4095 185.854 49.9619C185.246 49.5125 184.125 49.2838 182.507 49.2838C181.419 49.2838 180.261 49.3982 178.982 49.6612C177.669 49.9226 176.243 50.3377 174.67 50.9013C174.692 50.5631 174.717 50.2093 174.743 49.838C174.755 49.6695 174.767 49.4974 174.779 49.3214C174.817 48.7218 174.817 48.0862 174.817 47.3754C174.817 45.8722 174.593 44.7857 174.101 44.1779C173.653 43.5439 172.866 43.2433 171.74 43.2433C171.1 43.2433 170.461 43.3201 169.864 43.4688C169.258 43.5832 168.624 43.807 167.946 44.1076C167.575 44.8625 167.312 45.534 167.126 46.0977C166.897 46.6925 166.821 47.0323 166.821 47.2186C166.821 47.4848 166.935 47.7087 167.235 47.9342C167.536 48.1629 167.65 48.4962 167.65 48.9832C167.65 49.4373 167.459 50.6334 167.126 52.661C167.07 52.9111 167.034 53.0983 167.005 53.2559C166.994 53.3126 166.984 53.3654 166.974 53.4159L165.322 62.6049V62.7961C165.285 62.8729 165.285 62.9055 165.285 62.9432C165.285 63.0951 165.322 63.1669 165.399 63.2437C165.476 63.3205 165.585 63.3582 165.776 63.3582L170.391 63.5051L176.769 55.9256C177.441 61.0299 178.042 64.2551 178.611 65.5672Z" fill="white"/>
<path d="M99.4306 64.9332L102.957 66.474L104.492 65.3858C104.984 60.0185 105.733 54.7655 106.749 49.622C106.801 49.3431 106.847 49.0984 106.887 48.8882C106.986 48.3622 107.045 48.0535 107.045 47.9718C107.045 47.8247 107.045 47.6711 107.007 47.5568C106.983 47.4804 106.955 47.4224 106.929 47.3687C106.918 47.3454 106.907 47.323 106.898 47.3002L105.919 46.0209C105.886 45.9817 105.842 45.949 105.842 45.9065C105.733 45.7579 105.656 45.6811 105.579 45.6811C105.131 45.6811 104.159 46.0977 102.656 46.846C101.114 47.6009 99.8456 48.4587 98.8669 49.3606C97.7363 50.4863 96.6547 51.7216 95.6368 53.148C94.6254 54.5367 94.096 55.3243 94.096 55.5155V55.5857C94.0633 55.7001 94.0633 55.8537 94.0633 55.9631L94.096 59.2636L96.7625 59.3796C96.8321 59.5451 96.8993 59.8008 96.9901 60.1468C97.0015 60.1903 97.0133 60.2352 97.0255 60.2815C97.813 63.02 98.599 64.5933 99.4306 64.9332Z" fill="white"/>
<path d="M145.962 64.9332L149.488 66.474L151.062 65.3858C151.516 60.0185 152.264 54.7655 153.282 49.622C153.506 48.645 153.615 48.0862 153.615 47.9718C153.615 47.8247 153.576 47.6711 153.539 47.5568C153.516 47.4806 153.488 47.4226 153.461 47.369C153.45 47.3456 153.439 47.3231 153.429 47.3002L152.45 46.0209C152.432 46.0013 152.422 45.9833 152.413 45.9649C152.403 45.9465 152.393 45.9277 152.374 45.9065C152.264 45.7579 152.189 45.6811 152.112 45.6811C151.702 45.6811 150.686 46.0977 149.187 46.846C147.645 47.6009 146.41 48.4587 145.433 49.3606C144.273 50.4863 143.186 51.7216 142.17 53.148C141.159 54.5367 140.672 55.3243 140.672 55.5155C140.672 55.5155 140.628 55.5531 140.628 55.5857C140.595 55.7001 140.595 55.8537 140.595 55.9631L140.672 59.2636L143.296 59.3796C143.366 59.5659 143.448 59.8665 143.557 60.2815C144.345 63.02 145.132 64.5933 145.962 64.9332Z" fill="white"/>
<path fill-rule="evenodd" clip-rule="evenodd" d="M81.5991 66.0918C82.0494 66.2146 82.2997 66.2828 82.3565 66.2828C82.4643 66.2828 82.5411 66.2828 82.6179 66.2501C82.6571 66.206 82.6881 66.1358 82.6881 66.059C82.6881 65.9495 82.6571 65.7256 82.5787 65.3106C82.0166 62.6049 81.716 59.8273 81.716 57.0121C81.716 54.991 81.8304 53.2248 82.0934 51.7216C82.3173 50.2249 82.6571 48.9129 83.1424 47.7806C82.1702 46.0585 81.1147 44.5553 79.9938 43.3593C78.9057 42.1175 78.1525 41.5163 77.7032 41.5163C77.6257 41.5163 77.481 41.5866 77.2446 41.7015C77.1317 41.7563 76.9979 41.8214 76.8404 41.8937C76.4679 42.08 76.1248 42.232 75.8618 42.3431L75.7415 42.2469C75.2462 41.8508 74.9135 41.5847 74.7409 41.4787C74.5497 41.33 74.4026 41.2532 74.2883 41.2532L73.9485 41.6306L71.3963 43.807C71.3245 43.8838 71.2868 43.954 71.2493 44.0684C71.21 44.1779 71.1725 44.2939 71.1725 44.4034C71.1725 44.4458 71.1725 44.5226 71.21 44.5945C71.21 44.6417 71.2248 44.6882 71.2449 44.7514C71.2575 44.7912 71.2723 44.8377 71.2868 44.8951C68.7348 48.0044 66.8214 50.9013 65.5813 53.6021C64.3069 56.3014 63.7056 58.8159 63.7056 61.1442C63.7056 62.3092 63.8151 63.1669 64.083 63.7682C64.3069 64.3695 64.6777 64.6701 65.2088 64.6701C65.4653 64.6701 66.4816 64.0689 68.2478 62.9055C68.8986 62.4511 69.792 61.8686 70.8013 61.2105C72.4629 60.1272 74.4385 58.8391 76.1624 57.5807L77.78 64.1392C77.78 64.1833 77.8126 64.2551 77.8518 64.3319C78.1198 64.894 78.5233 65.2715 79.0544 65.3858C79.7651 65.5672 80.4808 65.7583 81.1964 65.9822C81.3449 66.0224 81.4791 66.059 81.5991 66.0918ZM74.7736 53.4159L66.7446 58.7064C67.1923 56.9745 68.3621 53.6789 69.2265 52.099C70.0467 50.5239 71.3963 48.7969 72.527 47.6336L74.7736 53.4159Z" fill="white"/>
<path d="M97.1791 41.2532L101.267 43.8838C102.092 43.2106 102.994 42.4557 103.935 41.5931C104.831 40.833 106.112 39.6554 107.773 38.1282C107.915 37.9976 108.06 37.8645 108.208 37.7289L106.749 34.6131C106.691 34.632 106.616 34.6513 106.521 34.6757C106.427 34.6997 106.315 34.7285 106.182 34.7666C103.372 35.4774 101.64 36.149 101.081 36.7551L97.1791 41.2532Z" fill="white"/>
<path d="M143.704 41.2532L147.799 43.8838C148.624 43.2106 149.521 42.4557 150.5 41.5931C151.301 40.8891 152.457 39.8271 153.944 38.4609C154.2 38.2258 154.466 37.9817 154.741 37.7289L153.282 34.6131C153.237 34.6276 153.181 34.6424 153.116 34.6595C153.013 34.6866 152.888 34.7195 152.751 34.7666C149.898 35.4774 148.209 36.149 147.645 36.7551L143.704 41.2532Z" fill="white"/>
<path fill-rule="evenodd" clip-rule="evenodd" d="M59.6288 7.54111C59.3985 6.32711 60.9833 5.84024 60.8853 3.45146C60.7546 -2.03674 53.0197 -0.729631 54.9053 5.60006C57.7581 15.9573 56.1029 23.1562 54.2991 26.7851C53.4021 28.6003 51.6799 26.4354 51.3957 25.1022C49.221 14.8642 44.4223 12.1862 47.0185 5.16707C49.0624 -0.352174 40.491 -2.57757 41.0384 5.27164C41.0924 6.97092 43.6559 17.1386 43.4599 23.1121C43.4386 23.8343 41.6119 24.331 40.8032 24.0255C37.0812 22.6219 33.3526 22.0958 29.6306 21.9373C13.277 21.9373 0 35.2143 0 51.5679C0 63.8336 6.11076 73.547 16.0759 77.6351C13.9109 80.6969 14.3472 83.7082 12.4241 87.556C28.7124 86.1688 32.0847 76.3018 42.3112 76.3345C51.7567 76.3247 51.1506 76.4063 60.6059 76.2691C62.5078 76.2364 61.6663 72.3282 61.2399 71.5357C50.7732 52.094 62.426 37.237 62.5633 32.0985C62.7872 23.4618 61.7643 18.9309 59.6288 7.54111ZM48.2308 67.5833C41.0548 66.108 29.1993 75.1875 21.8141 73.8411C17.8633 73.0831 14.6985 58.8828 12.0793 52.46C11.2542 50.5304 10.1056 49.7919 9.21027 48.377C8.39002 47.0747 9.0125 45.4523 8.79526 44.6321C7.49952 39.7566 22.0723 32.1704 34.9718 30.1754L46.208 30.7375L47.012 33.935L50.5052 34.7062L49.587 40.9101L33.4131 38.5981C27.3954 40.9542 23.1702 41.4721 18.5512 45.7366C19.5348 47.2446 18.9172 49.3328 19.9351 50.8409C20.2897 51.3719 22.0053 51.5582 22.3549 52.0548C21.7438 53.6185 23.9087 57.3732 24.1211 58.3682L25.3285 65.8236C30.8724 63.8663 38.1742 60.4073 42.5138 59.9857C45.8094 60.0462 43.2621 54.5907 42.5956 51.5679C41.7818 47.7757 36.0371 51.1742 31.106 53.2313L33.5552 58.4565L31.588 61.3092L30.691 59.2211L29.3577 60.3468L25.6684 50.1808L28.4656 46.7365L31.6371 47.6826C35.0094 46.2121 40.1202 42.1894 44.1052 43.9001C44.9679 44.271 45.0235 45.0471 45.3666 46.4195L47.2374 47.2333C48.3239 53.2623 56.4199 69.2679 48.2308 67.5833Z" fill="white"/>
</svg>
